HIERARCHY
ROOT Hips
{
	OFFSET 0.00000 0.00000 0.00000
	CHANNELS 6 Xposition Yposition Zposition Zrotation Yrotation Xrotation 
	JOINT LHipJoint
	{
		OFFSET 0 0 0
		CHANNELS 3 Zrotation Yrotation Xrotation
		JOINT LeftUpLeg
		{
			OFFSET 1.92384 -1.64427 0.83032
			CHANNELS 3 Zrotation Yrotation Xrotation
			JOINT LeftLeg
			{
				OFFSET 2.52872 -6.94761 0.00000
				CHANNELS 3 Zrotation Yrotation Xrotation
				JOINT LeftFoot
				{
					OFFSET 2.51827 -6.91890 0.00000
					CHANNELS 3 Zrotation Yrotation Xrotation
					JOINT LeftToeBase
					{
						OFFSET 0.22757 -0.62524 2.06528
						CHANNELS 3 Zrotation Yrotation Xrotation
						End Site
						{
							OFFSET 0.00000 -0.00000 1.08218
						}
					}
				}
			}
		}
	}
	JOINT RHipJoint
	{
		OFFSET 0 0 0
		CHANNELS 3 Zrotation Yrotation Xrotation
		JOINT RightUpLeg
		{
			OFFSET -2.09517 -1.64427 0.83032
			CHANNELS 3 Zrotation Yrotation Xrotation
			JOINT RightLeg
			{
				OFFSET -2.55173 -7.01082 0.00000
				CHANNELS 3 Zrotation Yrotation Xrotation
				JOINT RightFoot
				{
					OFFSET -2.50265 -6.87598 0.00000
					CHANNELS 3 Zrotation Yrotation Xrotation
					JOINT RightToeBase
					{
						OFFSET -0.22612 -0.62126 1.98677
						CHANNELS 3 Zrotation Yrotation Xrotation
						End Site
						{
							OFFSET -0.00000 -0.00000 1.04433
						}
					}
				}
			}
		}
	}
	JOINT LowerBack
	{
		OFFSET 0 0 0
		CHANNELS 3 Zrotation Yrotation Xrotation
		JOINT Spine
		{
			OFFSET 0.02839 1.68926 0.31690
			CHANNELS 3 Zrotation Yrotation Xrotation
			JOINT Spine1
			{
				OFFSET -0.01522 1.70183 0.21192
				CHANNELS 3 Zrotation Yrotation Xrotation
				JOINT Neck
				{
					OFFSET 0 0 0
					CHANNELS 3 Zrotation Yrotation Xrotation
					JOINT Neck1
					{
						OFFSET -0.04523 1.88988 0.10630
						CHANNELS 3 Zrotation Yrotation Xrotation
						JOINT Head
						{
							OFFSET 0.05172 1.78070 -0.56858
							CHANNELS 3 Zrotation Yrotation Xrotation
							End Site
							{
								OFFSET 0.01532 1.90392 -0.20434
							}
						}
					}
				}
				JOINT LeftShoulder
				{
					OFFSET 0 0 0
					CHANNELS 3 Zrotation Yrotation Xrotation
					JOINT LeftArm
					{
						OFFSET 3.25522 0.75486 0.22086
						CHANNELS 3 Zrotation Yrotation Xrotation
						JOINT LeftForeArm
						{
							OFFSET 4.85645 -0.00000 0.00000
							CHANNELS 3 Zrotation Yrotation Xrotation
							JOINT LeftHand
							{
								OFFSET 2.79874 -0.00000 0.00000
								CHANNELS 3 Zrotation Yrotation Xrotation
								JOINT LeftFingerBase
								{
									OFFSET 0 0 0
									CHANNELS 3 Zrotation Yrotation Xrotation
									JOINT LeftHandIndex1
									{
										OFFSET 0.57340 -0.00000 0.00000
										CHANNELS 3 Zrotation Yrotation Xrotation
										End Site
										{
											OFFSET 0.46229 -0.00000 0.00000
										}
									}
								}
								JOINT LThumb
								{
									OFFSET 0 0 0
									CHANNELS 3 Zrotation Yrotation Xrotation
									End Site
									{
										OFFSET 0.46935 -0.00000 0.46935
									}
								}
							}
						}
					}
				}
				JOINT RightShoulder
				{
					OFFSET 0 0 0
					CHANNELS 3 Zrotation Yrotation Xrotation
					JOINT RightArm
					{
						OFFSET -3.29079 0.52751 0.36356
						CHANNELS 3 Zrotation Yrotation Xrotation
						JOINT RightForeArm
						{
							OFFSET -4.67018 -0.00000 0.00000
							CHANNELS 3 Zrotation Yrotation Xrotation
							JOINT RightHand
							{
								OFFSET -2.65534 -0.00000 0.00000
								CHANNELS 3 Zrotation Yrotation Xrotation
								JOINT RightFingerBase
								{
									OFFSET 0 0 0
									CHANNELS 3 Zrotation Yrotation Xrotation
									JOINT RightHandIndex1
									{
										OFFSET -0.59407 -0.00000 0.00000
										CHANNELS 3 Zrotation Yrotation Xrotation
										End Site
										{
											OFFSET -0.47895 -0.00000 0.00000
										}
									}
								}
								JOINT RThumb
								{
									OFFSET 0 0 0
									CHANNELS 3 Zrotation Yrotation Xrotation
									End Site
									{
										OFFSET -0.48627 -0.00000 0.48627
									}
								}
							}
						}
					}
				}
			}
		}
	}
}
MOTION
Frames: 6
Frame Time: .0083333
-4.2844 15.7553 20.1522 -0.8004 6.0214 28.2465 0.0000 0.0000 0.0000 -10.7275 -10.2810 -56.8538 10.0501 17.4379 59.6556 2.2791 -3.7075 -27.6633 0.5419 -4.7164 -13.1015 0.0000 0.0000 0.0000 11.6789 13.0650 -55.5278 -10.2384 -17.5418 60.2822 -2.2967 -4.0350 -30.2874 -0.5821 4.8852 -13.5814 2.4607 0.9991 -20.1729 -0.5363 1.0470 -16.0713 -1.8146 0.3185 -6.2833 -3.8151 -3.1250 -15.7782 2.8214 -4.4994 35.2147 1.0723 -2.0248 15.0674 -0.0000 0.0000 0.0000 -79.9703 -3.1044 26.9355 137.0509 -49.7233 -99.3381 -0.0000 -0.0000 28.1745 9.6644 15.3895 2.5876 -7.1250 0.0000 -0.0000 -16.6168 44.9106 0.0377 -0.0000 0.0000 0.0000 77.6094 7.3143 29.8295 -133.7783 51.3531 -96.8110 0.0000 0.0000 37.0308 -5.8321 -8.3083 0.8456 7.1250 -0.0000 -0.0000 17.8566 -37.7492 3.3154
-4.2846 15.7547 20.1520 -0.8031 6.0284 28.2517 0.0000 0.0000 0.0000 -10.7193 -10.2838 -56.8684 10.0537 17.4399 59.6676 2.2793 -3.7143 -27.6630 0.5416 -4.7151 -13.0978 0.0000 0.0000 0.0000 11.6820 13.0646 -55.5383 -10.2411 -17.5432 60.2913 -2.2970 -4.0391 -30.2912 -0.5830 4.8889 -13.5919 2.4605 0.9999 -20.1747 -0.5387 1.0480 -16.0716 -1.8169 0.3190 -6.2825 -3.8005 -3.1186 -15.7709 2.8050 -4.4887 35.2245 1.0649 -2.0205 15.0689 0.0000 0.0000 0.0000 -79.9706 -3.1061 26.9342 137.0509 -49.7233 -99.3381 -0.0000 -0.0000 28.1820 9.6727 15.3846 2.5890 -7.1250 0.0000 -0.0000 -16.6078 44.9068 0.0393 0.0000 0.0000 0.0000 77.6125 7.3187 29.8241 -133.7822 51.3513 -96.8140 0.0000 0.0000 37.0353 -5.8425 -8.3063 0.8469 7.1250 -0.0000 -0.0000 17.8476 -37.7480 3.3141
-4.2847 15.7541 20.1518 -0.8048 6.0372 28.2552 0.0000 0.0000 0.0000 -10.7117 -10.2878 -56.8816 10.0575 17.4421 59.6804 2.2795 -3.7227 -27.6627 0.5411 -4.7128 -13.0913 0.0000 0.0000 0.0000 11.6859 13.0600 -55.5482 -10.2443 -17.5449 60.3017 -2.2974 -4.0419 -30.2949 -0.5834 4.8905 -13.5965 2.4597 0.9988 -20.1758 -0.5403 1.0467 -16.0714 -1.8182 0.3184 -6.2818 -3.7850 -3.1116 -15.7639 2.7854 -4.4762 35.2360 1.0564 -2.0159 15.0710 -0.0000 -0.0000 0.0000 -79.9719 -3.1054 26.9314 137.0485 -49.7245 -99.3362 -0.0000 -0.0000 28.1890 9.6829 15.3788 2.5909 -7.1250 0.0000 -0.0000 -16.5967 44.9024 0.0411 -0.0000 -0.0000 0.0000 77.6182 7.3205 29.8225 -133.7860 51.3495 -96.8170 0.0000 0.0000 37.0376 -5.8486 -8.3038 0.8475 7.1250 -0.0000 -0.0000 17.8419 -37.7461 3.3139
-4.2850 15.7533 20.1515 -0.8046 6.0445 28.2578 0.0000 0.0000 0.0000 -10.7059 -10.2922 -56.8938 10.0615 17.4443 59.6936 2.2797 -3.7311 -27.6624 0.5399 -4.7079 -13.0773 0.0000 0.0000 0.0000 11.6873 13.0562 -55.5583 -10.2478 -17.5469 60.3134 -2.2973 -4.0459 -30.2964 -0.5843 4.8943 -13.6073 2.4575 0.9972 -20.1725 -0.5425 1.0451 -16.0751 -1.8198 0.3176 -6.2879 -3.7711 -3.1039 -15.7465 2.7674 -4.4632 35.2490 1.0491 -2.0111 15.0715 0.0000 -0.0000 0.0000 -79.9745 -3.0964 26.9279 137.0461 -49.7258 -99.3344 -0.0000 -0.0000 28.2010 9.7147 15.3679 2.5977 -7.1250 0.0000 -0.0000 -16.5648 44.8956 0.0439 0.0000 -0.0000 0.0000 77.6262 7.3145 29.8236 -133.7822 51.3513 -96.8140 0.0000 0.0000 37.0468 -5.8618 -8.2961 0.8487 7.1250 -0.0000 -0.0000 17.8292 -37.7397 3.3142
-4.2853 15.7525 20.1513 -0.8041 6.0517 28.2592 0.0000 0.0000 0.0000 -10.7011 -10.2956 -56.9041 10.0653 17.4464 59.7065 2.2799 -3.7363 -27.6628 0.5396 -4.7067 -13.0739 0.0000 0.0000 0.0000 11.6884 13.0535 -55.5675 -10.2515 -17.5489 60.3258 -2.2973 -4.0500 -30.2979 -0.5848 4.8964 -13.6133 2.4521 0.9942 -20.1707 -0.5436 1.0422 -16.0769 -1.8184 0.3164 -6.2911 -3.7539 -3.0945 -15.7340 2.7462 -4.4473 35.2627 1.0402 -2.0050 15.0731 -0.0000 0.0000 0.0000 -79.9791 -3.0880 26.9233 137.0449 -49.7264 -99.3335 -0.0000 -0.0000 28.2092 9.7358 15.3541 2.6012 -7.1250 0.0000 -0.0000 -16.5415 44.8848 0.0484 -0.0000 0.0000 0.0000 77.6346 7.3093 29.8272 -133.7770 51.3537 -96.8100 0.0000 0.0000 37.0556 -5.8695 -8.2912 0.8493 7.1250 -0.0000 -0.0000 17.8216 -37.7356 3.3146
-4.2857 15.7517 20.1512 -0.8030 6.0578 28.2589 0.0000 0.0000 0.0000 -10.6990 -10.2973 -56.9110 10.0689 17.4484 59.7184 2.2803 -3.7378 -27.6651 0.5402 -4.7090 -13.0804 0.0000 0.0000 0.0000 11.6889 13.0510 -55.5740 -10.2553 -17.5509 60.3383 -2.2973 -4.0523 -30.2994 -0.5851 4.8977 -13.6171 2.4459 0.9921 -20.1686 -0.5456 1.0404 -16.0806 -1.8174 0.3160 -6.2966 -3.7351 -3.0835 -15.7108 2.7252 -4.4296 35.2727 1.0317 -1.9981 15.0704 -0.0000 -0.0000 0.0000 -79.9853 -3.0712 26.9229 137.0461 -49.7258 -99.3344 -0.0000 -0.0000 28.2159 9.7523 15.3433 2.6039 -7.1250 0.0000 -0.0000 -16.5232 44.8761 0.0520 -0.0000 -0.0000 0.0000 77.6432 7.2975 29.8309 -133.7668 51.3585 -96.8020 0.0000 0.0000 37.0645 -5.8775 -8.2848 0.8498 7.1250 -0.0000 -0.0000 17.8135 -37.7299 3.3155
